<svg width="248" height="124" viewBox="0 0 248 124" fill="none" xmlns="http://www.w3.org/2000/svg">
<path d="M123.072 122.493C122.463 121.681 122.362 121.276 122.666 120.971C123.072 120.464 122.971 118.638 122.362 115.899C122.159 114.885 121.956 111.03 121.855 107.277C121.753 103.524 121.55 97.336 121.347 93.4813C121.043 87.2935 120.84 85.6705 119.927 82.8302C119.623 81.9173 120.637 81.5115 121.855 82.1201C122.971 82.6273 123.072 83.4388 123.072 87.5978C123.072 89.5252 123.072 91.2496 123.072 91.4525C123.072 91.6554 123.579 91.8583 124.289 91.8583C126.724 91.8583 128.651 88.3079 128.245 84.7575C127.738 80.5985 126.014 77.8597 123.681 77.3525C122.565 77.1496 122.362 77.2511 121.855 77.8597C121.55 78.2654 121.145 78.9755 121.043 79.4827C120.84 80.4971 119.217 82.2216 118.71 81.9173C117.696 81.3086 118.913 77.8597 120.435 76.8453C122.463 75.5266 123.883 69.5417 122.26 68.9331C121.652 68.7302 119.724 69.846 118.913 71.0633C118.507 71.6719 117.899 71.9762 117.493 71.9762C117.087 71.9762 116.478 72.2806 116.073 72.5849C115.667 72.9906 115.261 73.1935 115.058 73.1935C114.348 73.1935 114.754 72.5849 116.073 71.7734C116.783 71.2662 117.696 70.6575 118.101 70.2518C119.014 69.4403 121.956 68.0201 122.768 68.0201C123.478 68.0201 124.086 68.9331 124.086 70.0489C124.086 70.759 123.681 72.2806 122.971 75.0194C122.768 75.628 122.971 75.7295 124.086 76.0338C126.724 76.7439 128.144 78.6712 129.158 82.6273C129.868 85.2647 129.665 87.1921 128.448 89.4237C127.434 91.2496 126.318 92.1626 124.391 92.5683L122.971 92.8727L122.869 102.306C122.768 110.624 122.869 112.247 123.478 115.899C123.883 118.232 124.086 120.87 124.086 121.783L123.985 123.406L123.072 122.493ZM50.6446 119.855C45.6741 118.841 46.3842 114.682 52.4705 107.784C53.4849 106.567 53.7892 105.857 53.1806 105.857C52.9777 105.857 52.7748 105.958 52.6734 106.161C52.5719 106.364 51.4561 106.77 50.1374 107.176C48.8187 107.581 47.2971 108.291 46.587 108.799C45.5727 109.61 45.3698 109.914 45.2683 111.233C45.1669 112.552 45.0655 112.755 44.4568 112.856C43.7468 112.958 43.7468 112.856 43.7468 111.537C43.7468 110.32 43.5439 110.016 42.7324 109.306C42.1237 108.799 41.5151 107.784 41.0079 106.263C39.8921 103.017 38.7763 102.408 37.1532 104.132C36.2403 105.045 36.2403 105.248 36.0374 109.103C35.936 112.247 36.0374 113.465 36.4432 114.682C37.1532 116.609 37.1532 118.435 36.5446 118.435C35.5302 118.435 35.2259 117.421 35.1245 112.856C35.023 110.422 34.9216 108.393 34.8201 108.393C34.5158 108.393 33.6029 109.407 32.487 111.03C32.0813 111.639 31.5741 112.349 31.4727 112.45C31.3712 112.552 30.864 113.16 30.5597 113.668C30.2554 114.175 29.7482 114.479 29.5453 114.378C29.241 114.175 29.4439 111.132 29.8496 110.32C29.9511 110.016 30.2554 109.204 30.3568 108.393C30.5597 107.176 30.9655 106.668 32.3856 105.248C33.4 104.335 34.4144 103.422 34.7187 103.321C35.1245 103.219 35.4288 102.712 35.5302 101.799C35.8345 99.8719 35.6317 96.9302 35.2259 96.8288C35.023 96.7273 34.3129 97.1331 33.6029 97.5388C31.9799 98.6547 31.6755 98.2489 33.1971 96.9302C33.8058 96.3216 34.4144 95.7129 34.4144 95.5101C34.4144 95.3072 34.6173 95.2057 34.8201 95.2057C35.023 95.2057 35.4288 95.2057 35.6316 95.2057C36.0374 95.2057 36.4432 91.3511 36.5446 87.9021C36.5446 86.7863 36.646 85.7719 36.8489 85.569C36.9504 85.3662 36.8489 85.1633 36.4432 85.0619C35.6316 84.859 35.6316 83.3374 36.4432 80.8014C37.4576 77.8597 38.7763 76.1352 40.805 75.3237C41.5151 75.0194 41.8194 74.6137 41.8194 73.7007C41.9209 73.0921 41.8194 72.4834 41.718 72.4834C40.7036 72.4834 35.5302 77.1496 33.1971 80.0913C31.2698 82.5259 31.1683 82.8302 30.9655 85.569C30.864 87.2935 30.6611 87.9021 30.2554 87.9021C29.8496 88.0036 29.6468 87.6993 29.5453 86.8878C29.4439 86.2791 29.241 85.1633 29.0381 84.3518C28.8352 83.5403 28.5309 81.6129 28.2266 79.9899C27.9223 78.3669 27.3137 76.3381 26.9079 75.3237C25.995 73.3964 25.8935 72.8892 26.5022 73.0921C27.5165 73.3964 29.241 77.8597 29.5453 80.4971C29.6468 81.9173 30.0525 83.0331 30.3568 83.0331C30.4583 83.0331 30.9655 82.323 31.4727 81.4101C32.2842 79.9899 36.4432 75.4252 38.0662 74.2079C38.4719 73.9036 39.4863 73.1935 40.3993 72.4834L42.1237 71.1647V68.6288C42.1237 66.2957 42.4281 65.2813 42.9352 66.0928C43.0367 66.2957 43.2396 67.2086 43.341 68.223C43.4424 69.2374 43.6453 69.9475 43.7468 69.9475C43.8482 69.9475 44.4568 69.6432 45.0655 69.3388C47.5 68.0201 50.2388 66.8029 52.1662 66.0928C53.8906 65.4842 54.4993 65.4842 55.9194 65.7885C58.1511 66.2957 60.5856 68.6288 61.6 71.3676C62.513 73.9036 62.1072 75.3237 59.3683 78.2655C58.6583 78.9755 57.6439 80.0914 57.0353 80.8014C55.818 82.1201 55.2094 82.1201 55.2094 80.9029C55.2094 80.0914 55.7165 79.5842 56.5281 79.5842C57.1367 79.5842 59.5712 76.9467 60.3827 75.3237C61.1942 73.7007 61.0928 73.0921 59.5712 70.4547C57.8468 67.5129 56.4266 66.4986 54.195 66.4986C52.8763 66.4986 49.6302 67.6144 47.2971 68.9331C46.1813 69.5417 45.2683 70.0489 45.1669 70.0489C44.6597 70.0489 43.5439 71.5705 43.4424 72.4834C43.0367 74.2079 42.8338 80.3957 43.1381 80.3957C43.7468 80.3957 46.4856 77.5554 46.9928 76.4396C47.2971 75.7295 48.3115 74.6137 49.123 73.8021C50.6446 72.382 51.3547 71.9762 51.3547 72.6863C51.3547 73.1935 49.123 76.1352 48.5144 76.541C48.0072 76.8453 48.0072 76.9467 48.6158 78.0626C49.0216 78.7726 49.6302 79.4827 50.036 79.5842C50.4417 79.6856 50.746 79.9899 50.746 80.1928C50.746 80.5985 49.6302 82.323 49.4273 82.323C49.3259 82.323 48.7173 83.1345 48.2101 84.0475C47.7029 84.9604 47.0942 85.8734 46.8914 86.0762C46.0799 86.5834 46.2827 85.8734 47.7029 83.5403L49.2245 81.1057L48.1086 79.787C47.5 79.077 46.8914 78.4683 46.8914 78.4683C46.7899 78.4683 45.877 79.2798 44.8626 80.1928C43.0367 81.8158 42.9352 82.0187 43.1381 83.1345C43.2396 83.946 43.1381 84.3518 42.8338 84.6561C42.2252 85.1633 41.718 84.7575 41.718 83.8446C41.718 82.8302 41.718 82.8302 40.095 83.8446C39.3849 84.2503 38.6748 84.6561 38.4719 84.6561C38.2691 84.6561 38.1676 85.2647 38.1676 86.0762C38.1676 86.7863 38.0662 88.9165 37.9647 90.641C37.8633 92.3655 37.7619 93.7856 37.8633 93.7856C38.1676 93.7856 40.2978 92.5683 41.8194 91.5539C43.5439 90.3367 45.2683 89.5252 45.4712 89.728C45.7755 90.0324 45.1669 91.1482 44.1525 92.1626C42.9352 93.2784 42.1237 93.2784 43.1381 92.1626C43.9496 91.2496 43.341 91.3511 41.718 92.4669C40.9065 92.9741 39.6892 93.7856 39.0806 94.0899C37.6604 94.8 37.4576 95.6115 38.4719 96.7273C39.182 97.5388 39.5878 99.3647 39.182 100.481C38.7763 101.596 38.7763 101.901 39.3849 101.901C40.7036 101.901 41.718 102.915 42.4281 104.741C43.9496 108.9 44.4568 109.103 44.8626 106.06C45.4712 100.785 46.4856 94.5971 46.6885 93.887C46.8914 93.4813 46.9928 92.7712 46.9928 92.264C46.9928 91.7568 47.1957 91.3511 47.3986 91.1482C48.2101 90.4381 52.1662 88.105 54.8036 86.6849C56.3252 85.8734 58.1511 84.9604 58.7597 84.5547C59.8755 83.946 59.977 83.946 60.2813 84.3518C60.4842 84.6561 60.4842 85.2647 60.4842 85.7719C59.977 88.8151 59.6727 92.8726 59.8755 97.336C60.1799 105.045 60.0784 112.856 59.6727 113.059C59.1655 113.363 58.5568 112.856 57.6439 111.537C56.6295 110.117 56.7309 110.016 57.8468 110.726C58.5568 111.233 58.5568 111.233 58.7597 109.509C58.8611 108.596 58.8611 104.031 58.7597 99.5676C58.6583 94.3942 58.7597 90.2352 58.9626 88.4093C59.1655 86.7863 59.2669 85.4676 59.1655 85.3662C58.9626 85.1633 53.6878 87.8007 51.1518 89.4237C49.7317 90.3367 48.8187 91.2496 48.4129 91.9597C47.9058 93.0755 46.8914 97.336 46.8914 98.6547C46.8914 99.2633 46.8914 99.2633 47.8043 98.6547C48.3115 98.2489 49.2245 97.5388 49.8331 96.9302C50.4417 96.3216 51.4561 95.4086 52.0647 94.9014C52.6734 94.3942 53.4849 93.6842 53.8906 93.2784L54.6007 92.6698L55.4122 93.3798C56.1223 94.0899 56.1223 94.1914 55.7165 95.0029C55.1079 96.1187 50.4417 100.785 50.1374 100.481C50.036 100.379 50.9489 99.2633 52.1662 97.9446C53.5863 96.5245 54.3978 95.4086 54.3978 94.9014C54.3978 94.4957 54.195 94.1914 54.0935 94.1914C53.7892 94.1914 50.6446 96.8288 48.3115 98.959C47.8043 99.4662 47.0942 99.9734 46.7899 100.176C46.3842 100.379 46.1813 101.089 45.9784 103.118C45.877 104.538 45.7755 105.857 45.877 105.958C45.9784 106.06 46.3842 105.553 46.8914 104.842C47.8043 103.524 48.0072 103.828 47.1957 105.451C46.0799 107.48 47.2971 107.48 53.4849 105.248C56.3252 104.234 57.9482 104.031 56.6295 105.045C53.9921 106.973 50.036 111.842 48.7173 114.682C47.2971 117.827 50.3403 119.957 54.4993 118.74C55.7165 118.435 56.4266 118.334 56.8324 118.537C57.7453 119.044 57.2381 119.348 55.2094 119.551C54.195 119.653 53.0791 119.855 52.6734 119.855C52.0647 120.058 51.2532 120.058 50.6446 119.855ZM33.8058 107.784C35.3273 105.553 35.6317 104.538 35.023 104.132C34.8201 104.031 34.0086 104.538 33.2986 105.248C31.777 106.567 31.0669 108.19 30.6611 110.929L30.4583 112.247L31.3712 111.132C31.8784 110.523 32.9942 109.001 33.8058 107.784ZM46.0799 108.19C46.0799 107.987 45.9784 107.784 45.7755 107.683C45.5727 107.581 45.4712 107.683 45.4712 107.987C45.4712 108.291 45.5727 108.494 45.7755 108.494C45.9784 108.494 46.0799 108.393 46.0799 108.19ZM37.4576 100.785C37.6604 99.4662 37.4576 98.1475 36.9504 98.1475C36.7475 98.1475 36.646 99.0604 36.646 100.075C36.646 102.205 37.1532 102.712 37.4576 100.785ZM39.4863 83.1345L41.1094 82.1201L41.3122 79.1784C41.4137 77.5554 41.4137 76.1352 41.3122 76.0338C41.0079 75.7295 38.3705 77.9611 38.3705 78.5698C38.3705 78.7726 37.9647 79.787 37.559 80.8014C36.7475 82.7288 36.7475 84.2504 37.559 84.2504C37.7619 84.1489 38.5734 83.6417 39.4863 83.1345ZM193.876 118.74C192.76 118.232 192.659 117.522 193.775 117.827C194.383 118.029 195.296 118.841 195.094 119.044C194.992 119.145 194.485 118.942 193.876 118.74ZM183.428 117.015C183.428 116.914 183.732 116.508 184.037 116.102C184.747 115.291 186.776 111.436 187.283 109.712C187.486 109.001 187.587 108.088 187.486 107.48C187.283 106.77 187.384 106.465 187.689 106.465C188.703 106.465 188.804 107.074 188.399 109.204C188.094 111.03 187.486 112.045 185.051 116.001C184.442 117.117 183.428 117.725 183.428 117.015ZM202.093 116.711C201.991 116.609 201.991 116.102 202.093 115.595C202.296 114.581 200.977 111.436 199.963 110.624C199.455 110.117 198.745 110.016 196.514 110.016C193.268 110.016 193.471 109.61 196.818 109.306C199.861 109.001 200.876 109.306 201.991 111.03C202.803 112.247 203.919 116.102 203.614 116.711C203.513 117.015 202.397 117.015 202.093 116.711ZM80.3662 106.973C79.7576 106.364 79.6561 102.814 80.1633 102.408C80.3662 102.306 80.4676 102.814 80.4676 103.625C80.4676 106.465 81.2791 105.654 83.4094 100.785C83.9165 99.6691 84.5252 98.3503 84.7281 97.7417C85.0324 97.1331 85.7424 95.3072 86.2496 93.6842C86.7568 92.0611 87.3655 90.5396 87.4669 90.3367C87.5683 90.0324 87.4669 89.9309 86.8583 90.1338C86.1482 90.3367 86.1482 90.2352 87.0611 89.4237C87.8727 88.7137 88.2784 87.8007 89.0899 85.3662C90.1043 82.1201 90.5101 79.2798 90.1043 78.9755C89.9014 78.8741 89.3942 79.077 88.8871 79.3813C86.0468 81.3086 81.3806 83.4388 81.3806 82.7288C81.3806 82.5259 81.6849 82.323 82.1921 82.2216C83.0036 82.0187 86.6554 79.9899 89.1914 78.2655C90.3072 77.5554 90.5101 77.2511 90.713 75.7295C91.1187 72.4834 91.0173 65.7885 90.5101 65.4842C90.2058 65.2813 90.2057 65.0784 90.8144 64.4698C91.2201 64.064 91.6259 63.8611 91.8288 63.9626C92.0317 64.064 92.0317 66.9043 92.0317 70.1503C92.0317 73.9036 92.1331 76.1352 92.336 76.1352C92.5388 76.1352 92.8432 75.9324 93.1475 75.7295C93.4518 75.5266 94.8719 74.5122 96.3935 73.5993C98.3209 72.4834 99.2338 72.0777 99.4367 72.2806C99.6396 72.4834 99.4367 72.8892 98.6252 73.5993C98.0165 74.1065 97.1036 74.918 96.5964 75.3237C96.0892 75.7295 95.582 76.1352 95.3791 76.1352C95.1763 76.1352 94.9734 76.4396 94.8719 76.7439C94.7705 77.1496 94.5676 77.3525 94.3647 77.3525C93.959 77.3525 93.959 76.9467 94.4662 76.4396C95.2777 75.628 94.4662 75.7295 93.1475 76.541C92.1331 77.1496 91.8288 77.6568 91.8288 78.2655C91.8288 78.7727 91.7273 79.3813 91.7273 79.6856C91.7273 79.9899 91.5245 82.0187 91.423 84.1489L91.2201 88.0036L92.8432 88.7137C93.959 89.2208 95.0748 90.1338 96.3935 91.5539C98.9295 94.3942 101.06 95.3072 101.06 93.5827C101.06 93.2784 101.263 92.9741 101.567 92.9741C102.277 92.9741 102.176 94.0899 101.263 94.9014C100.553 95.6115 100.35 95.6115 99.2338 95.3072C98.0165 94.9014 96.5964 93.6842 94.6691 91.4525C93.7561 90.3367 91.5245 89.1194 91.1187 89.5252C91.0173 89.6266 90.9158 93.3798 90.9158 97.9446C90.8144 104.842 90.8144 106.161 90.4086 106.161C90.1043 106.161 89.8 105.451 89.4957 103.929C88.6842 99.4662 88.6842 99.5676 89.2928 98.7561C89.9014 98.1475 89.9014 97.5388 90.0029 93.5827C90.0029 90.0324 90.0029 89.1194 89.5971 89.2208C89.0899 89.3223 87.1626 93.2784 87.0611 94.0899C87.0611 94.3942 86.8583 95.0029 86.554 95.5101C85.9453 96.6259 83.8151 101.495 83.8151 101.698C83.8151 101.901 81.1777 107.378 81.0763 107.378C80.9748 107.48 80.6705 107.277 80.3662 106.973ZM183.022 102.104C182.921 102.002 183.935 100.582 185.254 98.959C187.283 96.5245 187.689 95.9158 187.486 95.2057C187.384 94.5971 187.384 94.2928 187.79 93.9885C188.094 93.7856 188.399 92.7712 188.5 91.2496L188.703 88.9165L187.283 89.8295C185.355 91.0468 184.341 91.9597 184.037 92.7712C183.732 93.5827 182.718 93.7856 182.718 92.9741C182.718 92.264 185.051 90.1338 186.978 89.018C187.79 88.5108 188.601 88.0036 188.703 87.8007C188.804 87.5978 189.007 86.0762 189.109 84.5547C189.312 81.4101 189.21 81.3086 187.486 82.4244C186.37 83.236 184.341 85.2647 184.341 85.7719C184.341 85.9748 184.037 86.3806 183.732 86.7863C182.515 88.105 181.602 91.7568 181.602 94.9014C181.602 96.5245 181.805 98.3503 181.906 98.959C182.312 100.582 182.109 101.292 181.298 101.191C180.689 101.089 180.588 100.785 180.385 99.4662C180.283 98.5532 179.979 97.0316 179.776 96.1187C179.269 93.887 179.269 90.0324 179.776 85.569C180.081 82.2216 180.486 81.2072 181.095 81.8158C181.196 81.9173 181.399 83.1345 181.501 84.4532C181.602 85.7719 181.805 86.8878 181.805 86.9892C181.906 87.0906 182.312 86.7863 182.617 86.3806C184.544 83.8446 185.355 83.0331 187.08 81.8158C189.21 80.3957 189.312 80.0913 189.413 77.9611C189.413 76.0338 189.819 74.918 190.326 74.7151C190.63 74.6137 190.732 75.0194 190.529 77.0482C190.427 78.3669 190.427 79.4827 190.529 79.4827C190.732 79.4827 192.456 78.7726 194.586 77.8597C199.253 75.8309 202.499 75.1208 204.324 75.5266C205.035 75.7295 205.846 75.9324 205.947 76.1352C206.353 76.541 205.745 79.3813 205.136 80.0913C204.426 81.0043 201.687 87.9021 201.687 88.9165C201.687 89.8295 200.064 93.4813 199.253 94.2928C198.238 95.4086 196.615 98.4518 196.311 99.7705C196.108 100.988 195.195 101.191 195.195 100.075C195.195 99.6691 195.499 98.7561 195.804 97.9446C196.514 96.423 196.615 95.6115 196.209 95.6115C196.108 95.6115 193.065 97.0316 189.514 98.8575C185.964 100.683 183.022 102.104 183.022 102.104C183.124 102.205 183.225 102.306 183.022 102.104ZM195.094 95.7129C199.658 93.3798 199.253 93.887 200.774 88.6122C201.281 86.9892 202.397 83.8446 203.412 81.6129C205.44 76.9467 205.44 76.6424 203.006 76.4396C200.368 76.2367 190.732 79.8885 190.326 81.3086C190.123 82.0187 190.022 86.482 190.326 86.6849C190.427 86.7863 191.543 86.2791 192.76 85.6705C193.978 85.0619 195.296 84.5547 195.601 84.5547C197.427 84.859 195.702 88.5108 191.949 92.3655C190.427 93.9885 189.21 95.3072 189.21 95.4086C189.21 95.5101 188.297 96.6259 187.08 97.9446C185.964 99.2633 184.95 100.379 184.95 100.481C185.051 100.683 188.804 98.8575 195.094 95.7129ZM191.848 91.6554C193.673 89.6266 194.789 87.6993 194.789 86.2791C194.789 85.1633 194.586 85.1633 193.065 86.1777C192.456 86.5834 191.746 86.9892 191.543 86.9892C191.34 86.9892 190.935 87.2935 190.529 87.6993C190.022 88.3079 189.819 89.018 189.717 90.9453C189.616 92.3655 189.616 93.4813 189.819 93.4813C190.022 93.5827 190.935 92.7712 191.848 91.6554ZM181.805 88.5108C181.805 88.3079 181.704 88.105 181.501 88.105C181.196 88.105 180.791 88.9165 180.791 89.6266C180.791 90.1338 180.892 90.0324 181.298 89.5252C181.602 89.2208 181.805 88.7137 181.805 88.5108ZM107.146 91.1482C106.943 90.8439 106.74 89.8295 106.842 88.7137C106.842 87.5978 106.842 86.6849 106.74 86.482C106.639 86.3806 106.537 86.482 106.537 86.8878C106.537 87.1921 106.132 88.2065 105.523 89.018C104.813 90.1338 104.306 90.5396 103.799 90.5396C102.48 90.5396 102.277 89.5252 102.48 84.5547L102.683 79.9899L101.973 80.5985C100.857 81.6129 100.857 80.9029 102.074 78.4683C102.683 77.1496 103.291 75.8309 103.494 75.4252C103.697 75.0194 104.001 74.5122 104.306 74.4108C104.914 74.1065 106.74 70.5561 108.465 66.4986C109.276 64.5712 110.088 63.4554 110.494 63.4554C110.798 63.4554 109.885 65.9913 109.378 66.7014C108.972 67.3101 106.943 71.469 106.943 71.8748C106.943 71.9762 106.335 73.295 105.624 74.7151C104.712 76.6424 104.306 77.9611 104.001 80.0913C103.596 83.4388 103.494 89.4237 103.9 89.6266C104.306 89.9309 105.219 88.4093 106.233 85.3662C107.653 81.4101 108.972 78.4683 109.479 78.4683C109.682 78.4683 109.783 78.7727 109.682 79.1784C108.972 81.6129 108.16 86.0762 108.16 87.9021C108.059 89.5252 108.16 90.0324 108.566 90.0324C108.87 90.0324 109.276 89.4237 109.581 88.4093C109.885 87.4964 110.189 86.7863 110.291 86.6849C110.392 86.5834 110.494 86.2791 110.494 85.9748C110.494 85.2647 111.001 84.859 111.508 85.1633C111.711 85.2647 111.609 85.6705 111.305 86.0762C111.001 86.482 110.798 86.9892 110.798 87.1921C110.798 87.3949 110.392 88.6122 109.783 89.728C108.668 91.6554 107.958 92.1626 107.146 91.1482ZM134.129 86.5834C132.709 85.3662 132.303 83.946 132.607 80.2942C132.81 77.1496 134.839 66.2957 135.447 65.3827C135.853 64.6726 135.853 66.1942 135.447 67.6144C135.245 68.223 135.042 69.136 134.94 69.5417C134.839 69.9475 134.535 72.2806 134.129 74.6137C133.216 80.1928 133.216 83.946 134.23 85.1633C135.346 86.5834 136.158 86.9892 137.375 86.482C139.708 85.5691 141.534 82.2216 142.244 77.8597C143.258 71.469 142.041 60.7165 139.606 54.5288C139.201 53.4129 137.071 46.1093 136.868 44.9935C136.766 44.3849 136.563 43.8777 136.462 43.7762C136.36 43.6748 135.65 44.4863 134.94 45.5007C132.709 48.8482 129.057 52.0942 127.535 52.0942C126.217 52.0942 125.101 51.0798 124.695 49.6597C124.492 48.8482 124.188 48.2396 123.985 48.2396C123.782 48.2396 123.376 48.6453 122.971 49.0511C121.956 50.2683 120.435 50.4712 119.522 49.4568C118.101 47.9352 117.899 46.9208 117.899 43.3705C117.899 40.5302 118 39.5158 118.71 37.3856C119.623 34.6467 121.449 32.3137 122.666 32.3137C123.681 32.3137 125.608 33.328 125.608 33.8352C125.608 34.3424 125.608 34.3424 124.391 33.7338C123.883 33.4295 123.173 33.2266 122.768 33.2266C119.826 33.2266 117.594 42.1532 119.319 46.8194C120.13 49.1525 120.942 49.4568 122.463 48.341C123.782 47.428 123.782 47.428 123.985 43.9791C124.289 39.7187 125.202 36.777 126.724 35.2554C127.434 34.5453 128.144 34.1395 128.347 34.241C129.057 34.6467 129.26 35.864 128.955 37.1827C128.753 37.8928 128.55 38.8057 128.55 39.2115C128.448 39.6172 127.738 41.4431 126.825 43.2691C125.506 46.0079 125.202 46.8194 125.405 47.9352C125.608 49.6597 126.521 50.6741 127.941 50.6741C129.463 50.6741 131.999 48.341 134.433 44.6892L136.259 41.9503L136.056 39.8201C135.752 36.3712 136.969 32.7194 138.491 32.7194C140.215 32.7194 140.317 35.6611 138.694 39.4144C137.476 42.1532 137.476 42.8633 138.389 46.1093C138.592 46.9208 138.998 48.2396 139.201 49.1525C139.404 49.964 139.708 50.6741 139.809 50.6741C139.911 50.6741 140.317 49.964 140.621 49.1525C141.534 46.8194 149.446 30.6906 149.852 30.3863C150.055 30.2849 150.258 29.9806 150.258 29.6762C150.258 29.3719 150.663 28.5604 151.171 27.6475C151.779 26.6331 152.185 25.3144 152.489 23.6913C152.996 20.5467 154.721 13.5475 155.431 11.823C156.75 8.98271 160.3 6.75106 160.503 8.6784C160.604 9.08415 160.503 9.59135 160.3 9.79422C160.097 9.9971 159.894 10.6057 159.793 11.1129C159.691 11.6201 159.286 12.6345 158.981 13.3446C157.764 15.8806 156.344 18.9237 155.938 19.6338C155.735 20.0395 155.228 20.9525 154.924 21.5611C154.619 22.1698 154.112 22.8798 153.909 23.0827C153.706 23.2856 153.504 23.5899 153.605 23.6913C153.706 23.7928 153.504 25.3144 153.098 26.836C152.794 28.459 152.388 30.5892 152.286 31.5021C152.185 32.5165 152.083 33.7338 151.982 34.241C151.678 37.1827 151.373 44.8921 151.576 46.1093C151.678 47.0223 152.185 48.0367 152.692 48.6453L153.605 49.7611L154.822 48.7467C156.141 47.5295 159.387 42.8633 161.01 39.8201C161.923 38.0957 162.024 37.3856 162.227 34.4439C162.633 28.9662 162.836 27.7489 163.647 25.3144C164.662 22.4741 164.966 21.9669 166.183 22.4741C167.096 22.7784 167.096 22.8798 166.894 24.8072C166.691 27.1403 166.082 29.8791 165.778 30.3863C165.068 31.4007 163.85 35.7626 163.85 37.487C163.749 43.1676 165.981 49.3554 168.111 49.3554C168.415 49.3554 169.125 48.8482 169.734 48.1381C171.661 45.9065 172.98 42.1532 173.487 37.5885C173.69 35.1539 173.69 35.0525 172.676 33.6324C170.951 31.1978 171.053 27.6475 172.98 27.0388C174.096 26.7345 174.4 27.3431 174.501 30.5892C174.603 33.7338 174.806 34.241 176.124 34.7482C179.675 36.0669 184.95 34.5453 185.863 31.9079C186.065 31.1978 186.877 29.8791 187.587 28.9662C188.601 27.6475 189.109 27.2417 190.022 27.0388C191.036 26.836 191.34 26.9374 191.848 27.546C192.152 27.9518 192.659 28.7633 192.963 29.3719C193.268 29.9806 193.572 30.3863 193.876 30.2849C197.122 29.0676 201.078 28.0532 202.194 28.2561C203.31 28.459 203.513 28.3575 204.122 27.4446C204.832 26.5316 205.846 26.1259 205.846 26.836C205.846 27.0388 205.542 28.3575 205.237 29.6762C204.73 31.705 204.629 32.4151 204.933 33.1252C206.15 36.4726 209.396 36.6755 214.874 33.7338C218.526 31.8065 223.192 28.9662 223.496 28.5604C223.598 28.3575 223.699 27.2417 223.699 25.923C223.699 22.677 224.308 18.2136 224.815 16.8949C225.119 16.0834 225.627 15.6777 226.134 15.4748C227.554 15.1705 227.655 15.2719 229.177 18.6194C229.684 19.6338 229.887 22.4741 229.481 23.7928C229.177 25.1115 228.67 25.6187 225.627 27.9518C224.917 28.459 224.917 28.7633 224.815 31.6036C224.815 33.328 224.917 36.4726 225.119 38.7043C225.322 40.936 225.525 43.8777 225.728 45.1964C225.931 46.5151 226.032 47.7324 226.032 47.7324C226.235 47.9352 227.047 46.718 227.25 45.9065C227.655 44.2834 231.206 38.9072 233.032 37.0813C236.481 33.6324 240.234 32.4151 244.799 33.4295C247.335 33.9367 248.247 34.3424 246.117 34.1396C241.147 33.4295 238.814 33.7338 236.075 35.3568C234.452 36.2698 230.901 40.2259 229.887 42.2547C229.583 42.9647 228.974 43.9791 228.568 44.6892C228.163 45.3993 227.554 46.8194 227.047 47.9352C226.235 49.964 226.235 50.2683 226.235 58.6878C226.235 67.9187 225.931 70.8604 224.815 73.8021C224.105 75.7295 221.873 78.3669 220.758 78.6712C220.352 78.7727 219.743 78.5698 219.135 78.164C218.222 77.4539 218.222 77.4539 218.424 75.0194C218.526 73.7007 218.932 71.3676 219.337 69.9475C219.743 68.5273 220.048 67.0057 220.149 66.6C220.25 66.1942 220.352 65.687 220.453 65.5856C220.555 65.3827 220.758 64.977 220.758 64.5712C220.96 63.6583 221.569 61.7309 221.873 60.9194C222.076 60.5137 222.178 59.905 222.279 59.4993C222.381 59.0935 222.583 58.1806 222.888 57.5719C223.091 56.9633 223.395 56.1518 223.496 55.746C223.598 55.3403 223.902 54.6302 224.206 53.9201C224.714 52.7029 224.714 51.6885 224.206 44.6892C223.699 37.6899 223.395 33.1252 223.496 31.5021C223.496 29.7777 223.192 29.5748 221.873 30.5892C221.468 30.8935 220.96 31.1978 220.758 31.1978C220.656 31.1978 219.845 31.6036 219.033 32.2122C218.222 32.8208 217.512 33.2266 217.512 33.2266C217.41 33.2266 216.396 33.8352 215.178 34.5453C210.512 37.2842 206.759 37.7914 204.426 35.9655C203.817 35.5597 203.31 35.1539 203.209 35.2554C203.107 35.3568 202.701 36.1683 202.194 37.0813C201.383 38.6029 200.774 39.1101 200.368 38.6029C200.267 38.5014 200.673 37.3856 201.281 36.0669C202.397 33.7338 202.701 31.0964 202.093 30.1834C201.687 29.4734 199.861 29.3719 198.441 29.8791C197.63 30.1834 196.514 30.5892 195.905 30.6906C194.079 31.1978 193.369 31.9079 193.166 33.1252C192.862 34.9511 190.732 39.0086 189.21 40.5302C188.094 41.646 187.689 41.9503 186.674 41.9503C185.558 41.9503 185.457 41.8489 184.95 40.8345C184.645 40.2259 184.442 38.7043 184.442 37.2842C184.442 35.9655 184.341 34.8496 184.24 34.8496C184.138 34.8496 183.428 35.1539 182.718 35.5597C181.602 36.1683 180.892 36.2698 178.559 36.2698C177.037 36.2698 175.516 36.1683 175.11 36.0669C174.501 35.9655 174.4 36.2698 174.096 38.1971C173.284 43.4719 171.864 46.8194 169.835 48.8482C167.806 50.877 166.183 50.877 164.763 48.7467C163.546 47.0223 162.735 44.4863 162.43 42.0518C162.329 40.936 162.126 39.8201 161.923 39.8201C161.822 39.7187 161.416 40.1244 161.112 40.7331C160.807 41.3417 159.691 43.0662 158.677 44.5878C154.214 51.1813 152.489 52.0942 150.968 48.8482C150.359 47.428 150.258 46.8194 150.258 42.6604C150.258 38.5014 150.968 30.3863 151.475 28.8647C151.576 28.5604 151.475 28.2561 151.373 28.2561C150.968 28.2561 149.953 30.1834 147.417 35.3568C146.301 37.5885 145.287 39.6172 145.186 39.9216C144.78 40.6316 142.853 44.3849 141.534 47.3266C140.215 50.2683 140.114 52.5 141.23 56.1518C141.635 57.4705 142.041 59.4993 142.244 60.6151C142.345 61.7309 142.65 63.2525 142.853 63.9626C143.664 66.9043 143.36 75.8309 142.345 79.6856C142.041 80.8014 141.432 82.2216 140.925 82.9316C140.418 83.6417 139.809 84.5547 139.606 84.859C139.099 85.7719 136.969 86.9892 135.752 86.9892C135.447 87.395 134.636 87.0906 134.129 86.5834ZM221.671 77.7583C224.105 75.7295 224.917 72.2806 225.119 62.7453C225.221 58.8906 225.221 55.6446 225.119 55.4417C224.815 54.9345 224.105 56.5575 223.496 58.9921C223.192 60.2093 222.583 62.0352 222.178 63.1511C221.772 64.2669 221.265 65.687 221.265 66.3971C221.163 67.1072 221.062 67.8172 220.96 67.9187C220.758 68.3244 219.236 75.7295 219.236 76.6424C219.236 77.4539 220.048 78.6712 220.555 78.6712C220.555 78.6712 221.163 78.2655 221.671 77.7583ZM127.13 41.3417C128.245 38.6029 128.55 36.1683 127.84 36.1683C126.724 36.1683 125.811 38.5014 125.506 42.1532C125.304 44.0806 125.405 44.3849 125.811 43.9791C126.014 43.6748 126.622 42.4575 127.13 41.3417ZM189.413 39.5158C190.935 37.487 192.05 35.0525 192.152 33.6324L192.253 32.3137L190.833 32.0093C187.891 31.5021 186.37 33.2266 186.065 37.2842C185.863 40.023 186.573 41.646 187.689 41.1388C188.094 41.1388 188.906 40.3273 189.413 39.5158ZM138.288 38.7043C139.099 37.0813 139.302 34.3424 138.592 34.3424C137.983 34.3424 137.273 36.2698 137.273 38.2985C137.273 39.2115 137.273 40.023 137.375 40.023C137.578 40.023 137.983 39.4144 138.288 38.7043ZM165.068 30.5892C165.473 29.169 165.981 27.2417 166.082 26.2273C166.285 24.7057 166.183 24.5029 165.778 24.5029C164.966 24.5029 164.662 25.4158 164.155 29.5748C163.546 33.8352 163.546 33.6324 163.952 33.4295C164.053 33.2266 164.56 32.0093 165.068 30.5892ZM173.386 31.0964C173.386 30.5892 173.284 30.3863 173.081 30.4878C172.878 30.5892 172.878 30.9949 172.98 31.2993C173.183 32.1108 173.386 32.1108 173.386 31.0964ZM191.848 30.2849C191.848 29.5748 191.239 29.4734 190.63 29.9806C190.022 30.5892 190.123 30.8935 191.036 30.8935C191.645 30.8935 191.848 30.7921 191.848 30.2849ZM228.163 25.5172C229.278 24.0971 228.974 20.3439 227.453 17.8079C226.844 16.7935 226.742 16.6921 226.235 17.1993C225.931 17.5036 225.525 18.3151 225.424 19.1266C225.322 19.8367 225.119 20.7496 225.119 21.1554C224.815 22.9813 224.612 27.8503 224.714 28.1547C225.018 28.3575 227.148 26.836 228.163 25.5172ZM156.445 17.605C158.474 13.446 159.996 9.38847 159.59 8.98271C158.88 8.27264 156.141 11.9244 155.735 13.9532C155.634 14.4604 155.33 15.8806 155.025 17.1993C154.315 20.4453 154.112 21.5611 154.315 21.5611C154.417 21.4597 155.431 19.7352 156.445 17.605ZM162.329 81.5115C162.329 81.0043 163.242 80.5985 164.763 80.4971C165.271 80.4971 167.502 79.5842 169.632 78.5698C187.993 69.7446 209.802 62.6439 214.468 63.8611C215.178 64.064 215.889 64.3683 215.99 64.6726C216.294 65.3827 214.976 66.7014 213.86 67.0057C213.251 67.2086 212.541 67.4115 212.237 67.5129C211.019 68.0201 211.73 67.0057 212.947 66.4986C214.468 65.7885 214.57 65.0784 213.048 64.7741C211.831 64.5712 207.571 65.1798 204.324 66.0928C195.804 68.5273 192.862 69.4403 183.732 73.0921C178.559 75.1208 178.255 75.2223 170.038 79.077C163.952 81.7144 162.329 82.323 162.329 81.5115ZM186.776 69.846C186.877 69.6432 187.181 69.5417 187.384 69.5417C188.399 69.5417 191.645 66.3971 193.268 63.9626C196.108 59.6007 198.035 54.9345 197.122 54.9345C196.717 54.9345 191.137 57.2676 189.413 58.1806L187.79 58.9921L187.689 63.4554C187.587 68.4259 187.486 68.9331 186.674 68.8316C186.167 68.7302 186.065 68.223 186.065 64.5712C186.065 62.3396 185.863 60.3108 185.761 60.1079C185.66 59.905 185.153 60.0065 184.341 60.4122C181.196 61.9338 177.139 62.8467 176.632 62.1367C176.429 61.8324 177.139 61.4266 178.153 61.4266C178.965 61.4266 181.704 60.4122 183.935 59.2964C184.95 58.7892 185.558 58.282 185.66 57.7748C185.761 57.0647 185.051 53.8187 184.747 53.2101C184.645 53.1086 183.935 53.3115 183.225 53.6158L181.906 54.3259L183.327 53.0072C185.153 51.3842 185.964 51.3842 186.471 53.1086C186.674 53.8187 186.978 54.9345 187.08 55.5431C187.486 57.7748 187.486 57.7748 192.05 55.746C194.383 54.7316 196.412 53.9201 196.615 53.9201C196.818 53.9201 197.122 53.7173 197.427 53.4129C198.137 52.5 197.224 50.9784 195.499 50.2683L194.079 49.6597L192.76 50.877C191.442 52.1957 191.442 51.8913 192.76 50.0654C193.775 48.6453 195.195 48.341 196.514 49.2539C197.021 49.6597 197.63 49.964 197.731 49.964C197.832 49.964 198.238 50.3698 198.542 50.877C198.847 51.3842 199.151 51.9928 199.253 52.1957C199.455 52.5 200.673 52.1957 204.426 50.9784C209.599 49.2539 211.222 48.8482 212.034 49.3554C212.44 49.6597 212.44 49.7611 212.034 50.4712C211.628 51.1813 211.425 51.2827 209.599 51.3842C208.483 51.3842 207.368 51.3842 207.165 51.3842C206.86 51.3842 205.643 51.6885 204.426 52.1957C203.209 52.7029 201.687 53.1086 201.18 53.3115C199.963 53.6158 199.455 53.9201 199.455 54.3259C199.455 54.9345 197.224 59.6007 195.702 62.0352C193.572 65.5856 191.848 67.5129 189.616 68.9331C187.587 70.1503 186.37 70.5561 186.776 69.846ZM34.5158 64.7741C33.0957 64.2669 32.1827 63.7597 32.2842 63.5568C32.487 63.0496 35.023 63.2525 36.1388 63.8611C36.646 64.064 37.9647 64.3683 39.0806 64.3683C41.5151 64.4698 43.7468 63.5568 47.6014 61.2237C50.036 59.7021 50.6446 59.6007 50.3403 60.4122C50.036 61.1223 43.8482 64.4698 41.718 64.977C38.9791 65.7885 37.2547 65.7885 34.5158 64.7741ZM135.65 64.2669C135.65 63.6583 137.172 58.6878 137.578 57.8762C138.389 56.3547 138.186 57.5719 137.071 61.0208C136.056 64.4698 135.65 65.2813 135.65 64.2669ZM137.983 56.4561C137.983 56.3547 138.186 55.8475 138.491 55.2388C138.896 54.4273 138.998 54.3259 138.998 54.8331C138.998 55.746 138.694 56.5575 138.288 56.5575C138.085 56.5575 137.983 56.5575 137.983 56.4561ZM13.2137 49.1525C13.1122 48.6453 12.9093 45.9065 12.8079 42.9647C12.7065 40.023 12.5036 37.6899 12.3007 37.6899C12.0978 37.6899 11.3878 38.0957 10.6777 38.6029C9.86618 39.2115 8.44604 40.023 7.43165 40.5302C6.41726 41.0374 4.99712 41.8489 4.18561 42.3561C2.56259 43.3705 0.229492 43.8777 0.229492 43.1676C0.229492 42.4575 1.64964 41.5446 2.35971 41.7475C3.17122 41.9503 6.11295 40.5302 9.86618 38.0957L12.1993 36.5741V24.8072C12.1993 18.3151 12.0978 12.5331 11.9964 11.9244C11.6921 10.5043 11.1849 10.2 11.1849 11.4172C11.1849 12.1273 11.0834 12.2288 10.8806 11.823C10.6777 11.5187 10.5763 10.6057 10.5763 9.59135C10.5763 8.6784 10.4748 7.86689 10.3734 7.86689C10.4748 7.86689 9.66331 8.37408 8.95323 9.08415C7.33021 10.4029 6.31582 12.5331 6.62014 13.8518C6.82302 14.7647 6.21438 15.3734 5.80863 14.6633C4.59136 12.736 5.80863 10.6057 10.4748 6.95394C17.2712 1.3748 19.6043 0.258972 24.0676 0.258972C29.3424 0.258972 31.8784 3.2007 32.3856 9.89566C32.5885 12.8374 32.3856 14.8662 31.3712 22.5755C31.0669 24.5029 30.9655 26.1259 31.0669 26.2273C31.2698 26.4302 33.1971 25.8216 34.7187 25.2129C36.4432 24.5029 40.6022 23.4885 41.9209 23.4885C43.1381 23.4885 43.341 23.5899 43.4424 24.3C43.5439 24.7057 43.5439 25.4158 43.4424 25.8216C43.0367 27.546 42.6309 28.9662 41.9209 30.5892C40.1964 35.0525 38.2691 44.0806 38.8777 44.9935C39.3849 45.7036 41.0079 42.9647 43.341 37.5885C43.8482 36.4726 44.3554 35.3568 44.4568 35.1539C44.5583 34.9511 45.1669 33.0237 45.7755 31.0964C46.8914 27.4446 47.1957 26.7345 47.7029 27.2417C47.9058 27.4446 47.9058 28.0532 47.6014 28.8647C47.3986 29.5748 46.8914 32.2122 46.587 34.7482C46.0799 38.5014 46.0799 39.8201 46.3842 42.0518C46.7899 44.9935 47.0942 45.7036 47.9058 44.9935C49.7317 43.4719 53.6878 35.7626 54.195 32.618C54.7022 29.9806 55.3108 28.459 55.9194 28.459C56.6295 28.459 56.8324 29.0676 56.2237 30.082C55.4122 31.705 54.3978 42.559 55.1079 42.559C55.4122 42.559 59.064 36.4726 59.7741 34.6467C60.0784 33.9367 60.4842 32.3136 60.5856 30.9949C60.7885 29.2705 61.1942 28.1547 62.0058 26.836C63.0201 25.2129 64.0345 24.4014 64.4403 24.9086C64.7446 25.2129 63.8317 28.3575 62.6144 30.8935C61.2957 33.6324 61.0928 35.864 62.0058 38.6029C62.7158 40.7331 64.4403 42.2547 66.2662 42.2547C67.382 42.2547 70.2223 38.0957 70.7295 35.5597C71.0338 34.3424 71.541 34.1396 71.541 35.1539C71.541 35.9655 69.6137 39.8201 68.4978 41.3417C67.0777 43.3705 65.2518 43.5734 62.9187 42.1532C61.6 41.4431 60.687 40.023 60.1799 37.9942L59.7741 36.5741L59.1655 37.3856C58.8611 37.7913 58.354 38.6029 58.1511 39.1101C57.9482 39.6172 57.6439 40.023 57.441 40.023C57.2381 40.023 57.1367 40.3273 57.1367 40.6316C57.1367 41.7475 55.7165 43.7762 54.8036 44.0806C53.4849 44.5878 53.1806 43.9791 53.1806 41.2403C53.1806 38.2985 52.8763 38.1971 51.4561 40.8345C50.9489 41.8489 49.8331 43.4719 49.0216 44.4863C47.7029 46.1093 47.5 46.3122 46.4856 46.2108C45.3698 46.1093 45.2683 46.0079 44.8626 44.4863C44.5583 43.4719 44.4568 41.8489 44.4568 40.3273C44.5583 36.777 44.3554 36.8784 42.1237 41.646C40.6022 44.8921 39.2835 46.5151 38.1676 46.6165C37.4576 46.718 37.3561 46.5151 37.1532 45.3993C36.7475 42.2547 38.5734 34.241 41.1094 28.459C41.8194 26.836 41.9209 24.6043 41.3122 24.3C40.805 24.0971 35.8345 25.2129 34.4144 25.923C33.9072 26.1259 32.7914 26.6331 31.8784 26.9374C30.0525 27.546 29.7482 27.8503 29.5453 29.5748C28.5309 36.4726 28.1252 43.6748 28.9367 43.8777C29.4439 44.0806 29.7482 42.559 29.7482 40.1244C29.7482 38.6029 29.8496 38.0957 30.154 38.0957C30.9655 38.0957 31.0669 40.3273 30.4583 43.5734C29.9511 45.805 28.4295 46.6165 27.7194 44.9935C27.2122 43.7762 27.5165 35.3568 28.2266 31.705C28.5309 30.082 28.7338 28.5604 28.6324 28.5604C28.3281 28.2561 21.836 31.2993 18.4885 33.4295C14.6338 35.864 14.9381 35.3568 15.0396 40.2259C15.141 43.2691 15.0396 45.1964 14.6338 47.0223C14.3295 48.4424 14.0252 49.7611 13.9237 49.8626C14.0252 50.3698 13.4165 50.0655 13.2137 49.1525ZM14.7352 43.3705C14.9381 41.4431 14.6338 36.777 14.2281 36.777C14.0252 36.777 13.9237 38.6029 13.9237 40.8345C13.9237 44.8921 14.3295 46.3122 14.7352 43.3705ZM17.5755 33.328C20.5173 31.5021 28.2266 27.7489 28.9367 27.7489C29.5453 27.7489 29.9511 26.4302 30.5597 21.0539C31.4727 14.1561 31.2698 8.77984 30.2554 5.83811C29.4439 3.60645 27.4151 1.57768 25.8935 1.27336C24.0676 0.969044 20.923 1.27336 18.8942 2.08487C17.4741 2.59207 14.2281 4.82372 12.1993 6.54818C12.0978 6.64962 12.1993 6.8525 12.5036 7.15681C13.518 8.37408 13.8223 11.9244 13.8223 23.0827C13.8223 33.6324 13.9237 35.2554 14.4309 35.2554C14.4309 35.1539 15.8511 34.3424 17.5755 33.328ZM90.5101 47.9352C90.3072 47.428 90.2058 45.7036 90.2058 44.0806C90.2058 41.7475 90.1043 41.2403 89.8 41.7475C88.6842 43.5734 85.9453 46.718 85.2353 47.1237C83.2065 48.0367 81.6849 47.1237 80.6705 44.4863C80.3662 43.6748 80.0619 42.9647 79.9604 42.9647C79.859 42.9647 79.2504 43.5734 78.4389 44.3849C77.4245 45.5007 76.8158 45.805 76.2072 45.805C73.5698 45.805 72.9612 37.8928 75.2942 33.9367C75.9029 32.9223 76.1058 32.8208 77.1201 32.9223C77.7288 33.0237 78.3374 33.2266 78.4389 33.4295C78.5403 33.7338 78.3374 33.8352 77.5259 33.6324C76.5115 33.4295 76.5115 33.5309 75.9029 34.8496C75.0914 36.6755 74.787 41.4431 75.3957 43.1676C76.0043 44.7906 76.7144 45.0949 77.7288 44.182C79.5547 42.4575 79.9604 41.4431 79.6561 38.6029C79.3518 34.8496 80.4676 30.5892 81.7863 30.5892C82.395 30.5892 83.105 33.2266 82.8007 34.5453C82.4964 36.2698 81.5835 39.1101 81.2791 39.8201C80.8734 40.5302 81.482 43.5734 82.1921 44.9935C82.6993 46.1093 84.018 46.6165 84.8295 46.2108C85.8439 45.7036 88.0755 42.9647 89.3942 40.7331C90.2058 39.4144 90.8144 37.5885 91.2201 35.9655C92.4374 30.3863 94.8719 22.2712 96.1907 19.1266C97.3065 16.5906 99.4367 13.7503 100.147 13.7503C100.857 13.7503 101.364 14.7647 101.161 16.0834C101.06 17.5036 101.06 17.5036 102.074 15.1705C102.683 13.9532 103.393 12.736 103.697 12.4316C104.306 11.9244 105.117 12.2288 104.61 12.8374C104.407 13.0403 104.001 14.359 103.596 15.6777C102.987 17.8079 100.958 24.3 100.35 25.8216C98.9295 29.3719 97.7122 36.8784 98.0165 40.4288C98.3209 44.5877 99.5381 45.9065 101.161 43.6748C102.784 41.5446 103.088 40.6316 102.581 39.1101C101.973 36.8784 102.074 28.9662 102.886 24.7057C104.509 16.2863 107.755 9.08415 109.175 10.6057C109.479 10.9101 109.378 12.6345 108.972 16.9964C108.668 20.3439 108.363 24.3 108.262 25.8216C108.059 29.3719 107.45 31.4007 105.219 37.1827C104.204 39.8201 104.103 40.2259 104.914 41.7475C105.422 42.8633 106.03 43.269 107.349 43.8777C108.262 44.2834 109.276 44.5877 109.581 44.4863C110.494 44.0806 114.348 38.4 114.348 37.3856C114.348 37.0813 114.45 36.8784 114.653 36.8784C114.855 36.8784 114.957 36.9798 114.957 37.1827C114.957 37.7914 112.928 41.4431 111.609 43.2691C110.494 44.8921 109.986 45.1964 109.175 45.2978C106.943 45.5007 104.712 44.4863 103.596 42.559C103.19 41.9503 103.19 41.9503 102.784 42.559C102.581 42.9647 101.77 43.8777 101.06 44.5878C98.6252 47.1237 97.3065 46.2108 96.7993 41.646C96.6978 40.4288 96.495 39.4144 96.2921 39.3129C96.0892 39.2115 95.8863 39.6172 95.6835 40.2259C94.7705 42.7619 94.4662 43.4719 93.4518 45.7036C92.7417 47.3266 91.6259 48.5439 90.9158 48.5439C91.1187 48.7467 90.713 48.341 90.5101 47.9352ZM93.5532 44.4863C94.1619 42.9647 94.9734 41.0374 95.2777 40.023C95.582 39.0086 96.0892 37.487 96.495 36.5741C96.9007 35.6611 97.205 34.241 97.4079 33.328C98.118 30.2849 98.6252 27.1403 98.5237 27.0388C98.4223 26.9374 98.3209 27.0388 96.495 30.5892C95.8863 31.705 95.0748 33.2266 94.5676 33.9367C91.7273 38.2985 91.9302 37.6899 91.7273 43.0662C91.423 48.1381 91.9302 48.4424 93.5532 44.4863ZM105.32 36.0669C107.146 30.9949 107.856 28.0532 107.856 25.4158C107.856 23.9957 107.958 21.764 108.16 20.5467C108.668 16.7935 108.668 13.7503 108.262 13.5475C107.653 13.3446 105.422 19.228 104.61 23.387C103.799 27.1403 103.596 29.0676 103.596 32.4151C103.596 36.1683 103.9 38.9072 104.306 38.7043C104.306 38.5014 104.813 37.3856 105.32 36.0669ZM81.7863 35.9655C81.7863 35.5597 81.6849 35.1539 81.482 35.1539C81.2791 35.1539 81.1777 35.5597 81.1777 36.1683C81.1777 36.777 81.2791 37.0813 81.482 36.9798C81.6849 36.777 81.7863 36.3712 81.7863 35.9655ZM94.7705 32.3137C96.7993 28.6619 97.8137 26.5316 98.8281 23.2856C100.045 19.4309 100.654 16.2863 100.248 15.5762C99.8424 14.7647 99.741 14.8662 98.9295 16.1849C97.8137 18.0108 96.495 21.2568 95.6835 23.7928C95.2777 25.1115 94.8719 26.2273 94.7705 26.4302C94.6691 26.6331 94.3647 27.3431 94.2633 28.0532C94.1619 28.7633 93.6547 30.4878 93.2489 31.9079C92.5388 34.1395 92.5389 35.0525 92.9446 35.0525C93.046 35.1539 93.8576 33.8352 94.7705 32.3137Z" fill="#F6F6F6"/>
</svg>
